<?xml version="1.0" encoding="UTF-8"?>
<svg width="312px" height="312px" viewBox="0 0 312 312" version="1.1" xmlns="http://www.w3.org/2000/svg" xmlns:xlink="http://www.w3.org/1999/xlink">
    <!-- Generator: Sketch 44.1 (41455) - http://www.bohemiancoding.com/sketch -->
    <title>Logo</title>
    <desc>Created with Sketch.</desc>
    <defs></defs>
    <g id="Page-1" stroke="none" stroke-width="1" fill="none" fill-rule="evenodd">
        <g id="Logo">
            <circle id="Oval" fill="#D0E9E6" cx="156" cy="156" r="156"></circle>
            <path d="M92,47 L92.1495882,247.536507 L177.555265,247.897684 C193.931645,246.402907 205.459034,243.581559 212.137432,239.433639 C218.815829,235.28572 225.265421,229.219591 231.486207,221.235253 C235.40128,215.900752 237.888824,211.346916 238.948839,207.573745 C240.008854,203.800575 240.859241,196.775993 241.5,186.5 C241.613402,178.11816 240.763015,171.284827 238.948839,166 C237.134664,160.715173 233.818384,155.048506 229,149 C224.269053,143.95179 221.269053,140.95179 220,140 C218.730947,139.04821 216.110091,137.714877 212.137432,136 C220.06145,125.185247 224.015639,115.851913 224,108 C223.990024,102.991454 224.981077,94.011681 222,84 C220.012616,77.325546 215.679282,70.6588794 209,64 C202.807038,58.4582137 197.807038,54.7915471 194,53 C191.327058,51.742145 189.163627,50.1347349 184,49 C180.557582,48.2435101 176.224248,47.5768434 171,47 L92,47 Z" id="Path-2" fill="#1F938D"></path>
            <path d="M99,287 L99,50 C99.6463648,48.0203019 100.313031,46.6869685 101,46 C101.686969,45.3130315 103.020302,44.6463648 105,44 L134,44 L136,44 C136.822517,44.056076 137.362049,44.3930684 137.618595,45.0109771 C137.875141,45.6288858 138.002276,46.2918934 138,47 L134,47 L134,287 L117,271 L99,287 Z" id="Path-3" fill="#CE9819"></path>
            <path d="M134,47 C134,45 134.666667,44 136,44 C137.333333,44 138,45.0012805 138,47.0038415" id="Path" fill="#C78014"></path>
        </g>
    </g>
</svg>